<svg width="24" height="24" viewBox="0 0 24 24" fill="none" xmlns="http://www.w3.org/2000/svg">
<g id="custom-icons" clip-path="url(#clip0_2361_40790)">
<path id="Vector" d="M16 7C16 8.105 15.105 9 14 9C12.895 9 12 8.105 12 7C12 5.895 12.895 5 14 5C15.105 5 16 5.895 16 7ZM22.5 18H21V16.5C21 15.672 20.329 15 19.5 15C18.671 15 18 15.672 18 16.5V18H16.5C15.671 18 15 18.672 15 19.5C15 20.328 15.671 21 16.5 21H18V22.5C18 23.328 18.671 24 19.5 24C20.329 24 21 23.328 21 22.5V21H22.5C23.329 21 24 20.328 24 19.5C24 18.672 23.329 18 22.5 18ZM16 15L11.077 10.077C9.654 8.654 7.346 8.654 5.923 10.077L3 13V5.5C3 4.121 4.122 3 5.5 3H15.5C16.878 3 18 4.121 18 5.5V11.5C18 12.328 18.671 13 19.5 13C20.329 13 21 12.328 21 11.5V5.5C21 2.468 18.533 0 15.5 0H5.5C2.467 0 0 2.468 0 5.5V15.5C0 18.532 2.467 21 5.5 21H11.5C12.329 21 13 20.328 13 19.5V19C13 17.343 14.343 16 16 16V15Z" fill="#FCFCFC"/>
</g>
<defs>
<clipPath id="clip0_2361_40790">
<rect width="24" height="24" fill="white"/>
</clipPath>
</defs>
</svg>
